# xmcd
#
# Track frame offsets:
# 150
# 22835
# 44280
# 61576
#
# Disc length: 1125 seconds
#
# Revision: 1
# Processed by: cddbd v1.5.2PL0 Copyright (c) Steve Scherf et al.
# Submitted via: CedeCatalogueitor 2.6.0.6 http://personales.ya.com/cdcatalogueitor
#
DISCID=22046304
DTITLE=El Hijo - Canciones Gringas
DYEAR=1900
DGENRE=
TTITLE0=Ultimamente
TTITLE1=Una Larga Cuesta Abajo
TTITLE2=Leche Y Miel
TTITLE3=Era Jóven Cuand Me Fui
EXTD=
EXTT0=
EXTT1=
EXTT2=
EXTT3=
PLAYORDER=
